#!OML:ASF X:\für Bonn\!DataBase\2005_08_12_Daniel\c3d\Daniel.ASF
:FULLY-SPECIFIED
:DEGREES
17
root -3.4171 16.8132 -2.84878 311.242 -81.0434 -321.618
lowerback 22.0172 -2.9526 -2.83523
upperback 1.0071 -5.17531 -3.52829
thorax -11.3265 -2.44638 -0.678697
lowerneck 4.88232 2.10545 -3.35607
upperneck 4.6596 2.56411 -0.234841
head 0.581745 1.18338 0.450919
rclavicle 3.1731e-014 3.26007e-014
rhumerus 57.2083 2.01166 -97.863
rradius 6.81359
rwrist 62.8378
rhand -18.9004 10.3789
rfingers 7.12502
rthumb 7.40131 -19.4716
lclavicle 3.1731e-014 3.26007e-014
lhumerus 60.4093 2.48577 97.8516
lradius 8.57122
lwrist -67.0672
lhand -13.7262 5.60994
lfingers 7.12502
lthumb 12.3931 35.2226
rfemur -1.58083 1.22076 10.8478
rtibia 38.4596
rfoot -32.386 -9.70977
rtoes -15.3259
lfemur -10.3261 -10.8514 -22.6665
ltibia 41.3088
lfoot -24.5547 0.471925
ltoes -1.12616
18
root -3.40186 16.7496 -2.84912 311.136 -81.0597 -321.806
lowerback 22.5317 -2.94961 -2.77622
upperback 1.12925 -5.18328 -3.53126
thorax -11.4781 -2.45172 -0.688976
lowerneck 5.07866 2.10681 -3.3543
upperneck 4.44912 2.55734 -0.252081
head 0.486094 1.18388 0.441516
rclavicle 9.40811e-014 4.29375e-014
rhumerus 57.1524 1.9949 -97.7348
rradius 6.89803
rwrist 62.7525
rhand -18.997 10.4975
rfingers 7.12502
rthumb 7.30805 -19.3563
lclavicle 9.40811e-014 4.29375e-014
lhumerus 60.4002 2.55254 97.9097
lradius 8.65023
lwrist -66.9975
lhand -13.7889 5.47079
lfingers 7.12502
lthumb 12.3327 35.0871
rfemur -2.16666 0.434585 10.5655
rtibia 39.8883
rfoot -32.4388 -8.87415
rtoes -15.5769
lfemur -10.8194 -10.4458 -22.5892
ltibia 42.5673
lfoot -24.8593 0.0169373
ltoes -1.22163
19
root -3.38544 16.6802 -2.84974 311.095 -81.0872 -322.058
lowerback 23.0533 -2.94968 -2.72231
upperback 1.26039 -5.19423 -3.5192
thorax -11.6201 -2.45797 -0.678618
lowerneck 5.28961 2.1138 -3.35735
upperneck 4.20137 2.55749 -0.288477
head 0.377059 1.18847 0.426764
rclavicle -8.79746e-014 -1.70955e-014
rhumerus 57.0759 2.01072 -97.6089
rradius 7.07378
rwrist 62.6378
rhand -19.0203 10.5575
rfingers 7.12502
rthumb 7.2856 -19.2971
lclavicle -8.79746e-014 -1.70955e-014
lhumerus 60.383 2.65217 97.9642
lradius 8.78639
lwrist -67.0245
lhand -13.9075 5.30982
lfingers 7.12502
lthumb 12.2183 34.9329
rfemur -2.80305 -0.33842 10.2989
rtibia 41.4019
rfoot -32.489 -8.05321
rtoes -15.6287
lfemur -11.3531 -10.0503 -22.4891
ltibia 43.8911
lfoot -25.1839 -0.422424
ltoes -1.34991
20
root -3.36725 16.606 -2.8503 311.026 -81.1162 -322.274
lowerback 23.5981 -2.94837 -2.6695
upperback 1.39154 -5.20469 -3.50732
thorax -11.7734 -2.46381 -0.666847
lowerneck 5.4598 2.11379 -3.36462
upperneck 3.95581 2.55014 -0.324894
head 0.275424 1.18946 0.413558
rclavicle -4.50744e-014 -4.77083e-015
rhumerus 56.9423 2.02391 -97.4821
rradius 7.4148
rwrist 62.5492
rhand -18.9461 10.629
rfingers 7.12502
rthumb 7.35715 -19.2231
lclavicle -4.50744e-014 -4.77083e-015
lhumerus 60.3831 2.73638 98.0269
lradius 8.93569
lwrist -67.0908
lhand -14.0647 5.14004
lfingers 7.12502
lthumb 12.0667 34.7721
rfemur -3.49185 -1.05531 10.0392
rtibia 42.9913
rfoot -32.594 -7.26859
rtoes -15.7511
lfemur -11.9434 -9.64837 -22.3846
ltibia 45.2805
lfoot -25.5289 -0.855637
ltoes -1.42882
21
root -3.34922 16.5267 -2.85131 310.96 -81.1296 -322.506
lowerback 24.1746 -2.94809 -2.60928
upperback 1.52191 -5.21781 -3.50785
thorax -11.9455 -2.4715 -0.670717
lowerneck 5.61582 2.11963 -3.39003
upperneck 3.73792 2.54954 -0.322706
head 0.183526 1.19311 0.415622
rclavicle 1.75055e-014 2.62396e-014
rhumerus 56.7612 2.02608 -97.3695
rradius 7.85047
rwrist 62.4285
rhand -18.8524 10.6705
rfingers 7.12502
rthumb 7.44765 -19.1784
lclavicle 1.75055e-014 2.62396e-014
lhumerus 60.3521 2.80376 98.0821
lradius 9.12343
lwrist -67.2189
lhand -14.231 4.98248
lfingers 7.12502
lthumb 11.9064 34.6239
rfemur -4.20105 -1.75168 9.7697
rtibia 44.6542
rfoot -32.7067 -6.50939
rtoes -15.7354
lfemur -12.5468 -9.28882 -22.2911
ltibia 46.7266
lfoot -25.8962 -1.30332
ltoes -1.42654
22
root -3.33098 16.443 -2.85211 310.781 -81.1539 -322.591
lowerback 24.7093 -2.94036 -2.57542
upperback 1.66237 -5.22459 -3.50069
thorax -12.0783 -2.47571 -0.655498
lowerneck 5.7272 2.12095 -3.44159
upperneck 3.5047 2.54385 -0.325697
head 0.0937805 1.19441 0.42104
rclavicle -8.59868e-014 -4.41302e-014
rhumerus 56.6816 2.04182 -97.2444
rradius 8.25813
rwrist 62.3313
rhand -18.7531 10.7572
rfingers 7.12502
rthumb 7.54344 -19.0883
lclavicle -8.59868e-014 -4.41302e-014
lhumerus 60.3662 2.89469 98.1362
lradius 9.30759
lwrist -67.4088
lhand -14.415 4.82076
lfingers 7.12502
lthumb 11.7289 34.4724
rfemur -4.99145 -2.44184 9.48145
rtibia 46.3924
rfoot -32.8207 -5.75065
rtoes -15.6517
lfemur -13.2126 -8.89662 -22.1985
ltibia 48.2295
lfoot -26.307 -1.73422
ltoes -1.55908
23
root -3.31207 16.3533 -2.8529 310.746 -81.1596 -322.837
lowerback 25.2969 -2.94193 -2.53676
upperback 1.78996 -5.24313 -3.48062
thorax -12.2521 -2.48391 -0.621643
lowerneck 5.80262 2.13033 -3.49155
upperneck 3.31393 2.55048 -0.339619
head 0.0226555 1.20113 0.423301
rclavicle 4.99943e-014 3.61788e-014
rhumerus 56.6453 2.06525 -97.0985
rradius 8.57049
rwrist 62.2049
rhand -18.7061 10.8239
rfingers 7.12502
rthumb 7.5888 -19.02
lclavicle 4.99943e-014 3.61788e-014
lhumerus 60.371 2.97942 98.2206
lradius 9.50311
lwrist -67.6634
lhand -14.5943 4.68001
lfingers 7.12502
lthumb 11.556 34.3414
rfemur -5.79497 -3.13193 9.19005
rtibia 48.2024
rfoot -32.9446 -4.94396
rtoes -15.4675
lfemur -13.9034 -8.52358 -22.0979
ltibia 49.7902
lfoot -26.6771 -2.16591
ltoes -1.50496
24
root -3.29328 16.2588 -2.85377 310.573 -81.1887 -322.943
lowerback 25.8872 -2.9309 -2.48251
upperback 1.92886 -5.2444 -3.48489
thorax -12.4165 -2.48674 -0.630194
lowerneck 5.80466 2.11966 -3.4966
upperneck 3.15233 2.53703 -0.325688
head -0.0272668 1.19804 0.427938
rclavicle -1.00138e-014 -1.19271e-014
rhumerus 56.7552 2.04926 -96.9772
rradius 8.72881
rwrist 62.0782
rhand -18.7103 10.8843
rfingers 7.12502
rthumb 7.58477 -18.9597
lclavicle -1.00138e-014 -1.19271e-014
lhumerus 60.4263 3.0314 98.2707
lradius 9.65868
lwrist -67.9176
lhand -14.8083 4.54895
lfingers 7.12502
lthumb 11.3496 34.2218
rfemur -6.64342 -3.79456 8.89992
rtibia 50.0771
rfoot -33.0662 -4.18646
rtoes -15.4805
lfemur -14.62 -8.13408 -21.9861
ltibia 51.4002
lfoot -27.0763 -2.61079
ltoes -1.32935
25
root -3.2744 16.1588 -2.85503 310.533 -81.1894 -323.18
lowerback 26.4996 -2.9328 -2.43824
upperback 2.04962 -5.26391 -3.4728
thorax -12.6093 -2.49568 -0.606837
lowerneck 5.80511 2.12078 -3.52949
upperneck 3.02283 2.53731 -0.343893
head -0.0672185 1.20076 0.427233
rclavicle -5.35228e-014 -2.38542e-015
rhumerus 56.9019 2.08179 -96.8488
rradius 8.7921
rwrist 61.9889
rhand -18.7696 10.8973
rfingers 7.12502
rthumb 7.52754 -18.9488
lclavicle -5.35228e-014 -2.38542e-015
lhumerus 60.5144 3.11154 98.344
lradius 9.74891
lwrist -68.2035
lhand -15.0006 4.44325
lfingers 7.12502
lthumb 11.1641 34.1262
rfemur -7.52242 -4.47202 8.59865
rtibia 52.0097
rfoot -33.1599 -3.46354
rtoes -15.4289
lfemur -15.3722 -7.78109 -21.8775
ltibia 53.0579
lfoot -27.4942 -3.05049
ltoes -1.1788
26
root -3.25658 16.0557 -2.85612 310.421 -81.2071 -323.332
lowerback 27.1019 -2.93228 -2.40318
upperback 2.17252 -5.2818 -3.4577
thorax -12.7911 -2.50362 -0.575834
lowerneck 5.77 2.12443 -3.56528
upperneck 2.88317 2.54272 -0.344444
head -0.104936 1.20637 0.432623
rclavicle -8.62228e-015 2.26615e-014
rhumerus 57.1233 2.11066 -96.7124
rradius 8.76254
rwrist 61.8652
rhand -18.8622 10.9551
rfingers 7.12502
rthumb 7.43814 -18.8942
lclavicle -8.62228e-015 2.26615e-014
lhumerus 60.6276 3.18095 98.4243
lradius 9.86134
lwrist -68.4925
lhand -15.1673 4.32891
lfingers 7.12502
lthumb 11.0034 34.0205
rfemur -8.4295 -5.11143 8.29747
rtibia 53.9813
rfoot -33.201 -2.68727
rtoes -15.3546
lfemur -16.1478 -7.40919 -21.7587
ltibia 54.744
lfoot -27.9501 -3.46085
ltoes -1.12945
27
root -3.2384 15.9474 -2.85744 310.357 -81.2136 -323.54
lowerback 27.7045 -2.92821 -2.37201
upperback 2.306 -5.29447 -3.43311
thorax -12.9572 -2.50917 -0.533859
lowerneck 5.73499 2.12207 -3.57195
upperneck 2.73774 2.54191 -0.387015
head -0.143255 1.20942 0.420414
rclavicle 1.93815e-015 4.05521e-014
rhumerus 57.3796 2.15701 -96.5666
rradius 8.68354
rwrist 61.7766
rhand -19.0773 10.9895
rfingers 7.12502
rthumb 7.2305 -18.867
lclavicle 1.93815e-015 4.05521e-014
lhumerus 60.7979 3.24305 98.5279
lradius 9.96602
lwrist -68.7486
lhand -15.2852 4.21094
lfingers 7.12502
lthumb 10.8897 33.9086
rfemur -9.35528 -5.73415 7.99503
rtibia 55.9983
rfoot -33.1634 -1.93538
rtoes -15.2126
lfemur -16.941 -7.03923 -21.6352
ltibia 56.4596
lfoot -28.4112 -3.88188
ltoes -1.15547
28
root -3.22141 15.8381 -2.85865 310.188 -81.2204 -323.634
lowerback 28.302 -2.92554 -2.34337
upperback 2.42896 -5.31256 -3.42722
thorax -13.1326 -2.51758 -0.509708
lowerneck 5.69771 2.11626 -3.56449
upperneck 2.61965 2.53724 -0.424791
head -0.172639 1.21006 0.407556
rclavicle 3.3694e-014 8.74653e-015
rhumerus 57.6513 2.17595 -96.4351
rradius 8.56927
rwrist 61.6568
rhand -19.2397 11.0155
rfingers 7.12502
rthumb 7.07378 -18.8463
lclavicle 3.3694e-014 8.74653e-015
lhumerus 60.9395 3.30877 98.6007
lradius 10.1285
lwrist -69.0331
lhand -15.3435 4.08619
lfingers 7.12502
lthumb 10.8334 33.7868
rfemur -10.307 -6.34513 7.67218
rtibia 58.0488
rfoot -33.078 -1.22582
rtoes -15.2044
lfemur -17.7484 -6.65769 -21.5206
ltibia 58.1929
lfoot -28.9039 -4.29627
ltoes -1.24364
29
root -3.20544 15.7234 -2.85995 310.075 -81.2134 -323.788
lowerback 28.8837 -2.91603 -2.32239
upperback 2.56044 -5.32184 -3.41263
thorax -13.2858 -2.52194 -0.475517
lowerneck 5.69239 2.10744 -3.58472
upperneck 2.47112 2.5251 -0.443486
head -0.217278 1.20722 0.404879
rclavicle 1.88348e-014 -8.34896e-015
rhumerus 57.9498 2.18961 -96.285
rradius 8.4244
rwrist 61.5399
rhand -19.4403 11.0439
rfingers 7.12502
rthumb 6.88011 -18.8243
lclavicle 1.88348e-014 -8.34896e-015
lhumerus 61.0564 2.91614 97.8844
lradius 10.277
lwrist -68.3457
lhand -15.3784 4.1463
lfingers 7.12502
lthumb 10.7997 33.8486
rfemur -11.28 -6.97085 7.33288
rtibia 60.1496
rfoot -32.9881 -0.516588
rtoes -15.1546
lfemur -18.573 -6.28506 -21.4056
ltibia 59.9595
lfoot -29.43 -4.68811
ltoes -1.40239
30
root -3.18922 15.6041 -2.86154 310.004 -81.2447 -323.977
lowerback 29.5071 -2.90997 -2.28786
upperback 2.31954 -5.3412 -3.44988
thorax -13.0938 -2.51353 -0.403294
lowerneck 5.70819 2.11078 -3.58952
upperneck 2.30637 2.52891 -0.453026
head -0.27063 1.21276 0.401918
rclavicle -1.73937e-015 6.36111e-015
rhumerus 58.3081 2.21029 -96.1537
rradius 8.22419
rwrist 61.4811
rhand -19.6811 11.098
rfingers 7.12502
rthumb 6.64765 -18.7777
lclavicle -1.73937e-015 6.36111e-015
lhumerus 61.2444 2.63732 97.3551
lradius 10.3848
lwrist -67.8636
lhand -15.4256 4.16628
lfingers 7.12502
lthumb 10.7543 33.871
rfemur -12.2946 -7.57133 7.02351
rtibia 62.3051
rfoot -32.907 0.201522
rtoes -15.0988
lfemur -19.4358 -5.88062 -21.2416
ltibia 61.7646
lfoot -29.9389 -5.07329
ltoes -1.54995
31
root -3.17216 15.4796 -2.86243 309.867 -81.2394 -324.098
lowerback 30.0807 -2.90643 -2.26562
upperback 2.43829 -5.35779 -3.43614
thorax -13.2146 -2.52177 -0.369769
lowerneck 5.72181 2.10798 -3.61903
upperneck 2.12171 2.52294 -0.47339
head -0.329909 1.21368 0.399875
rclavicle -5.18828e-014 -3.18055e-015
rhumerus 58.6669 2.24421 -96.0115
rradius 8.0606
rwrist 61.3928
rhand -19.8528 11.118
rfingers 7.12502
rthumb 6.48193 -18.7628
lclavicle -5.18828e-014 -3.18055e-015
lhumerus 61.4785 2.38321 96.8959
lradius 10.4011
lwrist -67.3752
lhand -15.5232 4.18748
lfingers 7.12502
lthumb 10.6601 33.8971
rfemur -13.3583 -8.20405 6.65182
rtibia 64.534
rfoot -32.7752 0.898069
rtoes -15.0065
lfemur -20.3411 -5.46645 -21.1146
ltibia 63.6102
lfoot -30.4174 -5.47587
ltoes -1.77281
